<svg id="Layer_1" data-name="Layer 1" xmlns="http://www.w3.org/2000/svg" width="4.7384in" height="1.2558in" viewBox="0 0 341.1615 90.4143"><defs><style>.scls-1{fill:#f49c41;}.cls-2{fill:#f3f3f3;}.cls-3{fill:#4c4c4d;}</style></defs><title>quantsapp</title><rect class="scls-1" x="6.4508" y="6.3075" width="77.0935" height="77.0935" rx="12.3562"/><path class="cls-2" d="M67.139,44.74c0,13.0784-9.6367,21.3384-23.8623,23.6329A23.634,23.634,0,1,1,67.139,44.74Z"/><ellipse class="scls-1" cx="43.5062" cy="44.6248" rx="17.6673" ry="18.585"/><rect class="cls-2" x="43.2767" y="63.6687" width="27.0745" height="4.7036"/><path class="scls-1" d="M138.4845,43.9983H119.3028a20.86,20.86,0,0,1-7.1465-1.187,16.5941,16.5941,0,0,1-5.68-3.3989,15.6534,15.6534,0,0,1-3.771-5.4,18.0074,18.0074,0,0,1-1.3736-7.1933,16.0676,16.0676,0,0,1,5.1216-11.9419,17.2805,17.2805,0,0,1,5.5171-3.4454,18.7051,18.7051,0,0,1,13.3618,0,17.2805,17.2805,0,0,1,5.5171,3.4454A16.0686,16.0686,0,0,1,135.97,26.8187a15.1684,15.1684,0,0,1-.6284,4.5859,13.4418,13.4418,0,0,1-1.6529,3.4917,12.0352,12.0352,0,0,1-2.2578,2.5376,19.51,19.51,0,0,1-2.3979,1.7226v.0928h9.4512ZM118.5113,15.5052a11.1319,11.1319,0,0,0-4.3994.8613,10.39,10.39,0,0,0-3.4917,2.398,11.23,11.23,0,0,0-2.3047,3.6313,12.1765,12.1765,0,0,0-.8384,4.5625,12.8527,12.8527,0,0,0,.8384,4.6792,11.1359,11.1359,0,0,0,2.3276,3.7246,10.7564,10.7564,0,0,0,3.5152,2.4443,10.9841,10.9841,0,0,0,4.4463.8843,11.32,11.32,0,0,0,4.4926-.8843,10.6391,10.6391,0,0,0,3.5616-2.4443,11.1449,11.1449,0,0,0,2.3281-3.7246,12.8525,12.8525,0,0,0,.8379-4.6792,12.1763,12.1763,0,0,0-.8379-4.5625,11.04,11.04,0,0,0-2.3281-3.6313,10.5357,10.5357,0,0,0-3.5616-2.398A11.8437,11.8437,0,0,0,118.5113,15.5052Z"/><path class="scls-1" d="M160.878,43.9983H155.57V40.4134h-.0933a7.8371,7.8371,0,0,1-2.4209,2.91,7.1634,7.1634,0,0,1-4.4228,1.2339,8.999,8.999,0,0,1-3.7945-.7216,6.8272,6.8272,0,0,1-2.5376-1.9551,7.6149,7.6149,0,0,1-1.3964-2.8169,12.8616,12.8616,0,0,1-.419-3.3057V21.6507h5.5869V32.9642q0,.9323.0928,2.0717a7.4138,7.4138,0,0,0,.4893,2.1416,4.08,4.08,0,0,0,1.21,1.6763,3.5137,3.5137,0,0,0,2.3042.6748,5.3364,5.3364,0,0,0,2.3516-.4653,4.5153,4.5153,0,0,0,1.5825-1.2569,4.9982,4.9982,0,0,0,.9082-1.8159,8.113,8.113,0,0,0,.2793-2.1416V21.6507h5.5869Z"/><path class="scls-1" d="M179.4073,40.9256h-.14a7.1927,7.1927,0,0,1-3.0723,2.77,9.645,9.645,0,0,1-4.0977.8613,10.8762,10.8762,0,0,1-3.0024-.4189,8.1315,8.1315,0,0,1-2.6074-1.2568,6.4569,6.4569,0,0,1-1.8389-2.0953,5.94,5.94,0,0,1-.6982-2.9331,6.7619,6.7619,0,0,1,.6513-3.0962,6.3687,6.3687,0,0,1,1.7461-2.1416,8.8631,8.8631,0,0,1,2.5376-1.3735,17.4177,17.4177,0,0,1,3.003-.7681,26.6084,26.6084,0,0,1,3.1425-.3256q1.5821-.07,2.98-.07h1.3965v-.6054a3.6308,3.6308,0,0,0-1.4434-3.1426,6.1022,6.1022,0,0,0-3.6777-1.0474,8.648,8.648,0,0,0-3.3057.6284,8.3756,8.3756,0,0,0-2.6538,1.6993l-2.9331-2.9331a10.8307,10.8307,0,0,1,4.3535-2.7471,16.025,16.025,0,0,1,5.1446-.8379,12.9721,12.9721,0,0,1,4.0039.5356,8.8279,8.8279,0,0,1,2.7,1.3731,6.0825,6.0825,0,0,1,1.6523,1.9321,9.001,9.001,0,0,1,.8389,2.2119,12.1852,12.1852,0,0,1,.3018,2.1646q.0468,1.0481.0468,1.8393v12.85h-5.0283Zm-.3252-6.937H177.918q-1.1645,0-2.6074.0932a13.7289,13.7289,0,0,0-2.7236.4419,6.2256,6.2256,0,0,0-2.165,1.0244,2.2369,2.2369,0,0,0-.8843,1.8858,2.3759,2.3759,0,0,0,.3491,1.3266,3.1526,3.1526,0,0,0,.9077.9082,3.7907,3.7907,0,0,0,1.2573.5352,6.0785,6.0785,0,0,0,1.3965.1631,5.8078,5.8078,0,0,0,4.26-1.3735,5.0668,5.0668,0,0,0,1.374-3.7481Z"/><path class="scls-1" d="M188.672,21.6507H193.98v3.5849h.0927a7.8333,7.8333,0,0,1,2.4209-2.91,7.1619,7.1619,0,0,1,4.4229-1.2339,8.7618,8.7618,0,0,1,3.7949.7451,7.1751,7.1751,0,0,1,2.5371,1.9551,7.4016,7.4016,0,0,1,1.3965,2.7934,12.8729,12.8729,0,0,1,.419,3.3057V43.9983h-5.587V32.6849q0-.9309-.0927-2.0718a7.462,7.462,0,0,0-.4893-2.1416,4.0163,4.0163,0,0,0-1.2334-1.6763A3.5408,3.5408,0,0,0,199.38,26.12a5.352,5.352,0,0,0-2.3516.4653,4.5251,4.5251,0,0,0-1.582,1.2574,4.9945,4.9945,0,0,0-.9082,1.8154,8.0915,8.0915,0,0,0-.2793,2.1416V43.9983H188.672Z"/><path class="scls-1" d="M211.0186,26.4v-4.749h4.6094V15.18h5.5869v6.4712H227.36V26.4h-6.1455v9.7769a4.8659,4.8659,0,0,0,.628,2.6538,2.7515,2.7515,0,0,0,2.4912.978,9.0287,9.0287,0,0,0,1.63-.1631A3.4073,3.4073,0,0,0,227.36,39.11v4.7026a7.1958,7.1958,0,0,1-2.165.5815,18.1884,18.1884,0,0,1-2.2578.1631,11.4408,11.4408,0,0,1-3.6553-.4887,4.81,4.81,0,0,1-2.2344-1.49,5.65,5.65,0,0,1-1.1172-2.4907,17.423,17.423,0,0,1-.3027-3.4453V26.4Z"/><path class="scls-1" d="M241.8858,27.8431a5.1157,5.1157,0,0,0-4.3769-2.2813,4.68,4.68,0,0,0-2.1885.5586,1.8984,1.8984,0,0,0-1.07,1.8154,1.566,1.566,0,0,0,.8847,1.49,9.7078,9.7078,0,0,0,2.2344.7915q1.3506.3259,2.91.6748a11.4632,11.4632,0,0,1,2.9092,1.0708,6.3683,6.3683,0,0,1,2.2353,1.979,5.9026,5.9026,0,0,1,.8848,3.4448,6.24,6.24,0,0,1-.8614,3.3755,6.7765,6.7765,0,0,1-2.2353,2.2114,9.9135,9.9135,0,0,1-3.0957,1.21,16.2807,16.2807,0,0,1-3.4453.3725,14.8046,14.8046,0,0,1-4.7949-.7446,9.0913,9.0913,0,0,1-3.9112-2.7007L231.69,37.62a10.4478,10.4478,0,0,0,2.3047,1.9785,5.5691,5.5691,0,0,0,3.0029.7686,6.0248,6.0248,0,0,0,1.2569-.14,4.08,4.08,0,0,0,1.2109-.4658,2.873,2.873,0,0,0,.9072-.8144,2.0879,2.0879,0,0,0-.5351-2.8633,7.8888,7.8888,0,0,0-2.2344-.9082q-1.3519-.3486-2.91-.6519a11.2461,11.2461,0,0,1-2.91-.9775,6.0945,6.0945,0,0,1-2.2344-1.8858,5.5832,5.5832,0,0,1-.8847-3.352,6.52,6.52,0,0,1,.7685-3.2358,6.7505,6.7505,0,0,1,2.0244-2.2579,8.7624,8.7624,0,0,1,2.8868-1.3037,13.1746,13.1746,0,0,1,7.7285.3492,7.2347,7.2347,0,0,1,3.539,2.6308Z"/><path class="scls-1" d="M262.836,40.9256h-.14a7.1921,7.1921,0,0,1-3.0723,2.77,9.645,9.645,0,0,1-4.0977.8613,10.8876,10.8876,0,0,1-3.0029-.4189,8.1262,8.1262,0,0,1-2.6064-1.2568,6.4551,6.4551,0,0,1-1.84-2.0953,5.95,5.95,0,0,1-.6982-2.9331,6.7489,6.7489,0,0,1,.6523-3.0962,6.3461,6.3461,0,0,1,1.7461-2.1416,8.8469,8.8469,0,0,1,2.5371-1.3735,17.4411,17.4411,0,0,1,3.003-.7681,26.6084,26.6084,0,0,1,3.1425-.3256q1.5821-.07,2.98-.07h1.3965v-.6054a3.631,3.631,0,0,0-1.4433-3.1426,6.1025,6.1025,0,0,0-3.6778-1.0474,8.6471,8.6471,0,0,0-3.3056.6284,8.367,8.367,0,0,0-2.6534,1.6993l-2.9336-2.9331a10.8311,10.8311,0,0,1,4.3536-2.7471,16.0244,16.0244,0,0,1,5.1445-.8379,12.9721,12.9721,0,0,1,4.0039.5356,8.8279,8.8279,0,0,1,2.7,1.3731,6.0812,6.0812,0,0,1,1.6523,1.9321,9.001,9.001,0,0,1,.8389,2.2119,12.1852,12.1852,0,0,1,.3018,2.1646q.0468,1.0481.0468,1.8393v12.85H262.836Zm-.3252-6.937h-1.164q-1.1646,0-2.6075.0932a13.7289,13.7289,0,0,0-2.7236.4419,6.2213,6.2213,0,0,0-2.165,1.0244,2.2373,2.2373,0,0,0-.8848,1.8858,2.372,2.372,0,0,0,.35,1.3266,3.157,3.157,0,0,0,.9072.9082,3.7978,3.7978,0,0,0,1.2578.5352,6.0785,6.0785,0,0,0,1.3965.1631,5.8076,5.8076,0,0,0,4.26-1.3735,5.0668,5.0668,0,0,0,1.374-3.7481Z"/><path class="scls-1" d="M272.1007,21.6507h5.3076v3.352h.0928a7.1846,7.1846,0,0,1,3.2587-2.98,10.5689,10.5689,0,0,1,4.4229-.9311A11.2666,11.2666,0,0,1,289.7921,22a10.3388,10.3388,0,0,1,3.4922,2.4912,10.6644,10.6644,0,0,1,2.1884,3.7246,13.949,13.949,0,0,1,.7442,4.6089,13.1976,13.1976,0,0,1-.791,4.6094,11.4822,11.4822,0,0,1-2.212,3.7246,10.2093,10.2093,0,0,1-3.4218,2.4907,10.4745,10.4745,0,0,1-4.376.9077,10.81,10.81,0,0,1-2.794-.3257,9.6185,9.6185,0,0,1-2.1416-.8383,8.52,8.52,0,0,1-1.583-1.0938,7.95,7.95,0,0,1-1.07-1.1406h-.14V54.6136h-5.5869ZM290.63,32.8245a7.2726,7.2726,0,0,0-.4424-2.5141,6.3333,6.3333,0,0,0-1.3028-2.1417,6.6038,6.6038,0,0,0-9.6377,0,6.3087,6.3087,0,0,0-1.3037,2.1417,7.3667,7.3667,0,0,0,0,5.0283,6.29,6.29,0,0,0,1.3037,2.1416,6.6049,6.6049,0,0,0,9.6377,0,6.3145,6.3145,0,0,0,1.3028-2.1416A7.2669,7.2669,0,0,0,290.63,32.8245Z"/><path class="scls-1" d="M299.6622,21.6507H304.97v3.352h.0928a7.1849,7.1849,0,0,1,3.2588-2.98,10.5682,10.5682,0,0,1,4.4228-.9311A11.2662,11.2662,0,0,1,317.3536,22a10.3388,10.3388,0,0,1,3.4922,2.4912,10.6662,10.6662,0,0,1,2.1885,3.7246,13.949,13.949,0,0,1,.7441,4.6089,13.1976,13.1976,0,0,1-.791,4.6094,11.48,11.48,0,0,1-2.2119,3.7246,10.2107,10.2107,0,0,1-3.4219,2.4907,10.4745,10.4745,0,0,1-4.376.9077,10.8092,10.8092,0,0,1-2.7939-.3257,9.6166,9.6166,0,0,1-2.1416-.8383,8.5134,8.5134,0,0,1-1.583-1.0938,7.9388,7.9388,0,0,1-1.07-1.1406h-.14V54.6136h-5.5869Zm18.5293,11.1738a7.2726,7.2726,0,0,0-.4424-2.5141,6.3346,6.3346,0,0,0-1.3027-2.1417,6.6038,6.6038,0,0,0-9.6377,0A6.3055,6.3055,0,0,0,305.505,30.31a7.3651,7.3651,0,0,0,0,5.0283,6.2869,6.2869,0,0,0,1.3037,2.1416,6.605,6.605,0,0,0,9.6377,0,6.3158,6.3158,0,0,0,1.3027-2.1416A7.2669,7.2669,0,0,0,318.1915,32.8245Z"/><path class="cls-3" d="M101.8131,66.636a8.3745,8.3745,0,0,1,.5649-3.1172,7.4237,7.4237,0,0,1,1.5689-2.4589,7.1339,7.1339,0,0,1,2.4165-1.6211,8.5279,8.5279,0,0,1,6.2133,0,7.1332,7.1332,0,0,1,2.4161,1.6211,7.4251,7.4251,0,0,1,1.5688,2.4589,8.91,8.91,0,0,1,0,6.2442,7.39,7.39,0,0,1-1.5688,2.4687,6.9825,6.9825,0,0,1-2.4161,1.61,8.663,8.663,0,0,1-6.2133,0,6.9833,6.9833,0,0,1-2.4165-1.61,7.3885,7.3885,0,0,1-1.5689-2.4687A8.4553,8.4553,0,0,1,101.8131,66.636Zm1.3808,0a7.38,7.38,0,0,0,.4395,2.5723,6.1045,6.1045,0,0,0,1.2549,2.0713,5.8059,5.8059,0,0,0,1.977,1.3808,7.0074,7.0074,0,0,0,5.209,0,5.8011,5.8011,0,0,0,1.977-1.3808,6.112,6.112,0,0,0,1.2554-2.0713,7.75,7.75,0,0,0,0-5.1455,6.112,6.112,0,0,0-1.2554-2.0713,5.8027,5.8027,0,0,0-1.977-1.3809,7.0087,7.0087,0,0,0-5.209,0,5.8076,5.8076,0,0,0-1.977,1.3809,6.1045,6.1045,0,0,0-1.2549,2.0713A7.3815,7.3815,0,0,0,103.1939,66.636Z"/><path class="cls-3" d="M119.7,64.3763h1.2549v1.6943h.0419a3.2552,3.2552,0,0,1,.7325-.8682,4.3825,4.3825,0,0,1,.9516-.6064,4.7488,4.7488,0,0,1,1.0772-.3555,5.52,5.52,0,0,1,1.1089-.1152,5.3939,5.3939,0,0,1,2.04.376,4.7316,4.7316,0,0,1,2.667,2.6679,5.7125,5.7125,0,0,1,0,4.0791,4.7258,4.7258,0,0,1-2.667,2.667,5.3748,5.3748,0,0,1-2.04.377,5.52,5.52,0,0,1-1.1089-.1152,4.7537,4.7537,0,0,1-1.0772-.3555,4.3791,4.3791,0,0,1-.9516-.6065,3.2548,3.2548,0,0,1-.7325-.8681h-.0419v6.4638H119.7Zm1.1294,4.832a3.8146,3.8146,0,0,0,.3139,1.5381,3.9256,3.9256,0,0,0,.8575,1.2549,4.105,4.105,0,0,0,1.2763.8476,3.9955,3.9955,0,0,0,1.59.3135,3.9,3.9,0,0,0,1.59-.3135,3.6739,3.6739,0,0,0,1.2134-.8476,3.5872,3.5872,0,0,0,.7637-1.2549,4.6479,4.6479,0,0,0,0-3.0752,3.5863,3.5863,0,0,0-.7637-1.2549,3.6724,3.6724,0,0,0-1.2134-.8476,3.9,3.9,0,0,0-1.59-.3135,3.9955,3.9955,0,0,0-1.59.3135,4.1033,4.1033,0,0,0-1.2763.8476,3.9245,3.9245,0,0,0-.8575,1.2549A3.81,3.81,0,0,0,120.83,69.2083Z"/><path class="cls-3" d="M137.586,65.5062h-2.7612V71.803a1.3563,1.3563,0,0,0,.3555,1.0039,1.3285,1.3285,0,0,0,.9834.3555,2.9022,2.9022,0,0,0,.7216-.0937,4.5638,4.5638,0,0,0,.7007-.24l.105,1.1289a7.4648,7.4648,0,0,1-.8159.23,3.7631,3.7631,0,0,1-.8159.1045,3.0191,3.0191,0,0,1-1.1509-.1983,2.0425,2.0425,0,0,1-.7739-.5341,2.0861,2.0861,0,0,1-.4288-.7842,3.3409,3.3409,0,0,1-.1362-.9727V65.5062h-2.0918v-1.13h2.0918V61.594h1.2554v2.7823h2.7612Z"/><path class="cls-3" d="M139.8453,60.5481a.93.93,0,1,1,.272.669A.9126.9126,0,0,1,139.8453,60.5481Zm.314,3.8282h1.2553v9.665h-1.2553Z"/><path class="cls-3" d="M145.0758,67.096c0-.1816-.0074-.4014-.021-.6592s-.0244-.52-.0318-.7842-.0175-.5127-.0312-.7431-.021-.4082-.021-.5332h1.2554q.02.5435.0312,1.0459a3.2793,3.2793,0,0,0,.0522.6484h.063a3.3917,3.3917,0,0,1,1.2554-1.37,3.653,3.653,0,0,1,2.05-.5752,3.2812,3.2812,0,0,1,1.7573.4912,2.7926,2.7926,0,0,1,1.1509,1.6006,3.137,3.137,0,0,1,1.37-1.59,3.9048,3.9048,0,0,1,1.9141-.5019,4.1211,4.1211,0,0,1,1.8413.3555,2.9743,2.9743,0,0,1,1.1191.9306,3.5071,3.5071,0,0,1,.565,1.3291,7.5729,7.5729,0,0,1,.1567,1.5479v5.7529H158.297v-5.69a6.1225,6.1225,0,0,0-.1045-1.14,3.0236,3.0236,0,0,0-.3662-.9941,1.92,1.92,0,0,0-.732-.7012,2.5154,2.5154,0,0,0-1.2241-.2607,2.8659,2.8659,0,0,0-1.4434.3242,2.537,2.537,0,0,0-.8891.8262,3.401,3.401,0,0,0-.46,1.0879,4.9,4.9,0,0,0-.1362,1.1084v5.4394h-1.2554V68.2259a4.15,4.15,0,0,0-.4912-2.1553,1.648,1.648,0,0,0-1.5171-.8154,3.5713,3.5713,0,0,0-1.3071.24,2.8017,2.8017,0,0,0-1.0669.7324,3.5445,3.5445,0,0,0-.7114,1.2344,5.2487,5.2487,0,0,0-.2618,1.7461v4.833h-1.2548Z"/><path class="cls-3" d="M162.899,60.5481a.93.93,0,1,1,.272.669A.9126.9126,0,0,1,162.899,60.5481Zm.314,3.8282h1.2553v9.665H163.213Z"/><path class="cls-3" d="M167.02,73.2884l5.7944-7.7822h-5.5014v-1.13h7.2378v.7529l-5.7735,7.7822h6.0244v1.13H167.02Z"/><path class="cls-3" d="M185.6807,72.221a4.2311,4.2311,0,0,1-1.81,1.59,5.7505,5.7505,0,0,1-2.3741.4815,5.1344,5.1344,0,0,1-2.0087-.377,4.52,4.52,0,0,1-1.5479-1.0556,4.64,4.64,0,0,1-.9941-1.6114,5.9,5.9,0,0,1-.3448-2.0605,5.53,5.53,0,0,1,.3555-2.0088,4.7906,4.7906,0,0,1,1.0039-1.6,4.73,4.73,0,0,1,1.5274-1.0674,4.7781,4.7781,0,0,1,1.9453-.3867,4.6647,4.6647,0,0,1,1.956.3867,4.2855,4.2855,0,0,1,1.4229,1.0254,4.34,4.34,0,0,1,.8681,1.4541,4.8549,4.8549,0,0,1,.293,1.6523v.879h-8.1172a4.3033,4.3033,0,0,0,.1573,1.0146,3.5846,3.5846,0,0,0,.5751,1.2031,3.6337,3.6337,0,0,0,1.1192,1.0039,3.4883,3.4883,0,0,0,1.81.418,4.0448,4.0448,0,0,0,1.8623-.46,3.3461,3.3461,0,0,0,1.38-1.2548Zm-.9619-3.8281a2.864,2.864,0,0,0-.2617-1.2139,3.2768,3.2768,0,0,0-.7109-.9932,3.3692,3.3692,0,0,0-1.0674-.68,3.4249,3.4249,0,0,0-1.3076-.251,3.2066,3.2066,0,0,0-1.7051.4179,3.7274,3.7274,0,0,0-1.0772.9629,3.8043,3.8043,0,0,0-.5644,1.0557,2.7761,2.7761,0,0,0-.168.7012Z"/><path class="cls-3" d="M193.8194,66.636a8.3643,8.3643,0,0,1,.5645-3.1172,7.4247,7.4247,0,0,1,1.5693-2.4589,7.1269,7.1269,0,0,1,2.416-1.6211,8.5268,8.5268,0,0,1,6.2129,0,7.1409,7.1409,0,0,1,2.417,1.6211,7.4241,7.4241,0,0,1,1.5684,2.4589,8.9027,8.9027,0,0,1,0,6.2442,7.3889,7.3889,0,0,1-1.5684,2.4687,6.99,6.99,0,0,1-2.417,1.61,8.662,8.662,0,0,1-6.2129,0,6.9765,6.9765,0,0,1-2.416-1.61,7.3894,7.3894,0,0,1-1.5693-2.4687A8.445,8.445,0,0,1,193.8194,66.636Zm1.38,0a7.38,7.38,0,0,0,.44,2.5723,6.1145,6.1145,0,0,0,1.2558,2.0713,5.8,5.8,0,0,0,1.9766,1.3808,7.0074,7.0074,0,0,0,5.209,0,5.8031,5.8031,0,0,0,1.9775-1.3808,6.114,6.114,0,0,0,1.2549-2.0713,7.7516,7.7516,0,0,0,0-5.1455,6.114,6.114,0,0,0-1.2549-2.0713,5.8048,5.8048,0,0,0-1.9775-1.3809,7.0087,7.0087,0,0,0-5.209,0,5.8021,5.8021,0,0,0-1.9766,1.3809,6.1145,6.1145,0,0,0-1.2558,2.0713A7.3815,7.3815,0,0,0,195.1993,66.636Z"/><path class="cls-3" d="M211.7052,64.3763h1.2558v1.6943h.041a3.2534,3.2534,0,0,1,.7325-.8682,4.3953,4.3953,0,0,1,.9521-.6064,4.757,4.757,0,0,1,1.0772-.3555,5.52,5.52,0,0,1,1.1093-.1152,5.3888,5.3888,0,0,1,2.0391.376,4.7333,4.7333,0,0,1,2.668,2.6679,5.721,5.721,0,0,1,0,4.0791,4.7275,4.7275,0,0,1-2.668,2.667,5.37,5.37,0,0,1-2.0391.377,5.52,5.52,0,0,1-1.1093-.1152,4.7619,4.7619,0,0,1-1.0772-.3555,4.392,4.392,0,0,1-.9521-.6065,3.2529,3.2529,0,0,1-.7325-.8681h-.041v6.4638h-1.2558Zm1.13,4.832a3.821,3.821,0,0,0,.3135,1.5381,3.9361,3.9361,0,0,0,.8584,1.2549,4.0893,4.0893,0,0,0,1.2764.8476,3.9919,3.9919,0,0,0,1.59.3135,3.905,3.905,0,0,0,1.59-.3135,3.6821,3.6821,0,0,0,1.2129-.8476,3.5944,3.5944,0,0,0,.7636-1.2549,4.6462,4.6462,0,0,0,0-3.0752,3.5935,3.5935,0,0,0-.7636-1.2549,3.6806,3.6806,0,0,0-1.2129-.8476,3.905,3.905,0,0,0-1.59-.3135,3.9919,3.9919,0,0,0-1.59.3135,4.0875,4.0875,0,0,0-1.2764.8476,3.9349,3.9349,0,0,0-.8584,1.2549A3.8159,3.8159,0,0,0,212.835,69.2083Z"/><path class="cls-3" d="M224.5919,64.3763h1.2558v1.6943h.0411a3.253,3.253,0,0,1,.7324-.8682,4.3953,4.3953,0,0,1,.9521-.6064,4.757,4.757,0,0,1,1.0772-.3555,5.521,5.521,0,0,1,1.1093-.1152,5.3888,5.3888,0,0,1,2.0391.376,4.7333,4.7333,0,0,1,2.668,2.6679,5.72,5.72,0,0,1,0,4.0791,4.7275,4.7275,0,0,1-2.668,2.667,5.37,5.37,0,0,1-2.0391.377,5.521,5.521,0,0,1-1.1093-.1152,4.7619,4.7619,0,0,1-1.0772-.3555,4.392,4.392,0,0,1-.9521-.6065,3.2526,3.2526,0,0,1-.7324-.8681h-.0411v6.4638h-1.2558Zm1.13,4.832a3.8226,3.8226,0,0,0,.3134,1.5381,3.9377,3.9377,0,0,0,.8584,1.2549,4.0893,4.0893,0,0,0,1.2764.8476,3.9919,3.9919,0,0,0,1.59.3135,3.905,3.905,0,0,0,1.59-.3135,3.6821,3.6821,0,0,0,1.2129-.8476,3.5961,3.5961,0,0,0,.7637-1.2549,4.6479,4.6479,0,0,0,0-3.0752,3.5952,3.5952,0,0,0-.7637-1.2549,3.6806,3.6806,0,0,0-1.2129-.8476,3.905,3.905,0,0,0-1.59-.3135,3.9919,3.9919,0,0,0-1.59.3135,4.0875,4.0875,0,0,0-1.2764.8476,3.9366,3.9366,0,0,0-.8584,1.2549A3.8175,3.8175,0,0,0,225.7218,69.2083Z"/><path class="cls-3" d="M237.2071,69.2083a5.3892,5.3892,0,0,1,.376-2.0391,4.8625,4.8625,0,0,1,1.0469-1.6113,4.6561,4.6561,0,0,1,1.61-1.0566,5.47,5.47,0,0,1,2.05-.376,5.394,5.394,0,0,1,2.04.376,4.7272,4.7272,0,0,1,2.6669,2.6679,5.7054,5.7054,0,0,1,0,4.0791,4.7213,4.7213,0,0,1-2.6669,2.667,5.375,5.375,0,0,1-2.04.377,5.4507,5.4507,0,0,1-2.05-.377,4.64,4.64,0,0,1-1.61-1.0556,4.8537,4.8537,0,0,1-1.0469-1.6114A5.3865,5.3865,0,0,1,237.2071,69.2083Zm1.2549,0a4.4723,4.4723,0,0,0,.2617,1.5381,3.5784,3.5784,0,0,0,.7637,1.2549,3.68,3.68,0,0,0,1.2129.8476,4.19,4.19,0,0,0,3.1806,0,3.68,3.68,0,0,0,1.2129-.8476,3.5932,3.5932,0,0,0,.7637-1.2549,4.6479,4.6479,0,0,0,0-3.0752,3.5923,3.5923,0,0,0-.7637-1.2549,3.6786,3.6786,0,0,0-1.2129-.8476,4.19,4.19,0,0,0-3.1806,0,3.6786,3.6786,0,0,0-1.2129.8476,3.5775,3.5775,0,0,0-.7637,1.2549A4.4662,4.4662,0,0,0,238.462,69.2083Z"/><path class="cls-3" d="M250.2823,67.096c0-.1816-.0078-.4014-.0215-.6592s-.0244-.52-.0312-.7842-.0176-.5127-.0313-.7431-.02-.4082-.02-.5332h1.2549q.0206.5435.0312,1.0459a3.2306,3.2306,0,0,0,.0528.6484,4.2745,4.2745,0,0,1,1.2344-1.4014,3.0609,3.0609,0,0,1,1.8408-.5439,2.1562,2.1562,0,0,1,.3662.0312q.1773.0309.3662.0733l-.1465,1.2344a1.5285,1.5285,0,0,0-.4814-.084,3.5045,3.5045,0,0,0-1.4121.2617,2.6586,2.6586,0,0,0-.9834.7217,3.016,3.016,0,0,0-.5752,1.0771,4.5209,4.5209,0,0,0-.1885,1.3291v5.2715h-1.2549Z"/><path class="cls-3" d="M262.08,65.5062h-2.7618V71.803a1.3568,1.3568,0,0,0,.3565,1.0039,1.3261,1.3261,0,0,0,.9834.3555,2.9066,2.9066,0,0,0,.7217-.0937,4.5837,4.5837,0,0,0,.7-.24l.1044,1.1289a7.4476,7.4476,0,0,1-.8154.23,3.76,3.76,0,0,1-.8164.1045,3.02,3.02,0,0,1-1.15-.1983,2.0289,2.0289,0,0,1-.7734-.5341,2.081,2.081,0,0,1-.43-.7842,3.3411,3.3411,0,0,1-.1357-.9727V65.5062h-2.0918v-1.13h2.0918V61.594h1.2548v2.7823H262.08Z"/><path class="cls-3" d="M272.6036,71.3216q0,.2724.0205.6592t.0313.7841c.0068.2657.0175.5127.0322.7432s.0205.4072.0205.5332h-1.2549c-.0146-.3623-.0244-.7109-.0312-1.0459a3.3857,3.3857,0,0,0-.0528-.6484h-.0625a3.3872,3.3872,0,0,1-1.2558,1.37,3.6518,3.6518,0,0,1-2.05.5752,4.19,4.19,0,0,1-1.8516-.3555,2.9475,2.9475,0,0,1-1.13-.9306,3.3792,3.3792,0,0,1-.5537-1.3291,8.0817,8.0817,0,0,1-.1465-1.5479V64.3763h1.2549v5.69a6.0785,6.0785,0,0,0,.1045,1.14,2.9989,2.9989,0,0,0,.3662.9942,1.9009,1.9009,0,0,0,.7324.7,2.502,2.502,0,0,0,1.2237.2617,3.5778,3.5778,0,0,0,1.3076-.24,2.8067,2.8067,0,0,0,1.0664-.7325,3.55,3.55,0,0,0,.7119-1.2343,5.2767,5.2767,0,0,0,.2617-1.7471v-4.832h1.2549Z"/><path class="cls-3" d="M276.16,67.096c0-.1816-.0078-.4014-.0214-.6592s-.0245-.52-.0313-.7842-.0176-.5127-.0312-.7431-.0206-.4082-.0206-.5332h1.2549q.0205.5435.0313,1.0459a3.2255,3.2255,0,0,0,.0527.6484h.0625a3.39,3.39,0,0,1,1.2549-1.37,3.657,3.657,0,0,1,2.0508-.5752,4.12,4.12,0,0,1,1.8408.3555,2.9781,2.9781,0,0,1,1.1191.9306,3.5063,3.5063,0,0,1,.5645,1.3291,7.573,7.573,0,0,1,.1572,1.5479v5.7529H283.19v-5.69a6.1567,6.1567,0,0,0-.1045-1.14,3.0416,3.0416,0,0,0-.3662-.9941,1.9239,1.9239,0,0,0-.7324-.7012,2.5136,2.5136,0,0,0-1.2236-.2607,3.57,3.57,0,0,0-1.3076.24,2.8026,2.8026,0,0,0-1.0674.7324,3.5454,3.5454,0,0,0-.711,1.2344,5.2488,5.2488,0,0,0-.2617,1.7461v4.833H276.16Z"/><path class="cls-3" d="M287.7921,60.5481a.929.929,0,1,1,.2715.669A.91.91,0,0,1,287.7921,60.5481Zm.3134,3.8282H289.36v9.665h-1.2549Z"/><path class="cls-3" d="M297.7491,65.5062h-2.7617V71.803a1.3567,1.3567,0,0,0,.3564,1.0039,1.3264,1.3264,0,0,0,.9834.3555,2.9054,2.9054,0,0,0,.7217-.0937,4.58,4.58,0,0,0,.7-.24l.1045,1.1289a7.454,7.454,0,0,1-.8154.23,3.7605,3.7605,0,0,1-.8164.1045,3.02,3.02,0,0,1-1.15-.1983,2.03,2.03,0,0,1-.7735-.5341,2.0824,2.0824,0,0,1-.43-.7842,3.3411,3.3411,0,0,1-.1357-.9727V65.5062h-2.0918v-1.13h2.0918V61.594h1.2549v2.7823h2.7617Z"/><path class="cls-3" d="M300.0089,60.5481a.929.929,0,1,1,.2715.669A.91.91,0,0,1,300.0089,60.5481Zm.3134,3.8282h1.2549v9.665h-1.2549Z"/><path class="cls-3" d="M313.7735,72.221a4.2313,4.2313,0,0,1-1.81,1.59,5.75,5.75,0,0,1-2.374.4815,5.1349,5.1349,0,0,1-2.0088-.377,4.5193,4.5193,0,0,1-1.5478-1.0556,4.6412,4.6412,0,0,1-.9942-1.6114,5.9,5.9,0,0,1-.3447-2.0605,5.53,5.53,0,0,1,.3555-2.0088,4.7906,4.7906,0,0,1,1.0039-1.6,4.73,4.73,0,0,1,1.5273-1.0674,4.7788,4.7788,0,0,1,1.9453-.3867,4.6652,4.6652,0,0,1,1.9561.3867,4.2865,4.2865,0,0,1,1.4229,1.0254,4.3421,4.3421,0,0,1,.8681,1.4541,4.8573,4.8573,0,0,1,.293,1.6523v.879h-8.1172a4.3023,4.3023,0,0,0,.1572,1.0146,3.5868,3.5868,0,0,0,.5752,1.2031,3.6326,3.6326,0,0,0,1.1192,1.0039,3.4881,3.4881,0,0,0,1.81.418,4.0448,4.0448,0,0,0,1.8623-.46,3.3464,3.3464,0,0,0,1.38-1.2548Zm-.9619-3.8281a2.864,2.864,0,0,0-.2617-1.2139,3.2754,3.2754,0,0,0-.711-.9932,3.3676,3.3676,0,0,0-1.0673-.68,3.4254,3.4254,0,0,0-1.3077-.251,3.2064,3.2064,0,0,0-1.705.4179,3.7261,3.7261,0,0,0-1.0772.9629,3.8043,3.8043,0,0,0-.5644,1.0557,2.7761,2.7761,0,0,0-.168.7012Z"/><path class="cls-3" d="M316.9952,71.5726a2.7,2.7,0,0,0,1.1719,1.1826,3.4539,3.4539,0,0,0,1.6318.4072,2.6517,2.6517,0,0,0,.7949-.125,2.4371,2.4371,0,0,0,.711-.3555,1.9516,1.9516,0,0,0,.5127-.5547,1.39,1.39,0,0,0,.1992-.7431,1.1953,1.1953,0,0,0-.43-1.0039,3.1779,3.1779,0,0,0-1.0557-.5225,12.8125,12.8125,0,0,0-1.3808-.3252,5.8632,5.8632,0,0,1-1.3809-.4179,2.9812,2.9812,0,0,1-1.0566-.7842,2.1255,2.1255,0,0,1-.4287-1.4229,2.4876,2.4876,0,0,1,.2929-1.2344,2.6906,2.6906,0,0,1,.7637-.8681,3.3143,3.3143,0,0,1,1.0557-.5127,4.3319,4.3319,0,0,1,1.1933-.167,4.5139,4.5139,0,0,1,2.0606.4394,3.0449,3.0449,0,0,1,1.3486,1.3809l-1.1289.669a2.6641,2.6641,0,0,0-.89-1.0147,2.7626,2.7626,0,0,0-2.0917-.24,2.4353,2.4353,0,0,0-.6592.2929,1.6929,1.6929,0,0,0-.4912.48,1.1656,1.1656,0,0,0-.1993.67,1.1113,1.1113,0,0,0,.4288.9619,3.2756,3.2756,0,0,0,1.0566.4922,12.757,12.757,0,0,0,1.3809.3028,5.6,5.6,0,0,1,1.3808.4082,2.8227,2.8227,0,0,1,1.0567.8164,2.3708,2.3708,0,0,1,.4287,1.5166,2.8585,2.8585,0,0,1-.2823,1.3076,2.7155,2.7155,0,0,1-.7744.9307,3.4528,3.4528,0,0,1-1.1191.5644,4.5432,4.5432,0,0,1-1.3184.1885,5.3588,5.3588,0,0,1-2.29-.4815,3.4688,3.4688,0,0,1-1.6006-1.4853Z"/><path class="cls-3" d="M328.3858,23.2542h-.72v-7.08h2.18a2.7734,2.7734,0,0,1,1.7051.47,1.6624,1.6624,0,0,1,.625,1.42,1.7677,1.7677,0,0,1-.4649,1.2451,1.9978,1.9978,0,0,1-1.3447.5849l2.04,3.36h-.88l-1.94-3.29h-1.2Zm0-3.95h1.28a2.8934,2.8934,0,0,0,.8154-.1,1.5181,1.5181,0,0,0,.5342-.2651.9589.9589,0,0,0,.29-.39,1.2812,1.2812,0,0,0,.0909-.4848,1.2568,1.2568,0,0,0-.0909-.4751.9966.9966,0,0,0-.29-.3951,1.4117,1.4117,0,0,0-.5342-.2651,3.04,3.04,0,0,0-.8154-.0947h-1.28Z"/><path class="cls-3" d="M329.8526,26.514a7.1541,7.1541,0,1,1,7.1543-7.1538A7.1616,7.1616,0,0,1,329.8526,26.514Zm0-13.3081a6.1541,6.1541,0,1,0,6.1543,6.1543A6.1609,6.1609,0,0,0,329.8526,13.2059Z"/></svg>