<svg id="Layer_1" data-name="Layer 1" xmlns="http://www.w3.org/2000/svg" width="10.8635in" height="1.6809in" viewBox="0 0 782.1733 121.0275"><defs><style>.cls-1{fill:#fff;}</style></defs><title>symposium</title><path class="cls-1" d="M15.6006,38.6655a28.949,28.949,0,0,1,2.063-11.1484,24.4558,24.4558,0,0,1,5.7554-8.5059,25.3748,25.3748,0,0,1,8.7593-5.3935,31.58,31.58,0,0,1,11.0761-1.8819,31.59,31.59,0,0,1,11.0762,1.8819A25.3832,25.3832,0,0,1,63.09,19.0112a24.4558,24.4558,0,0,1,5.7554,8.5059,28.9509,28.9509,0,0,1,2.0629,11.1484A28.9474,28.9474,0,0,1,68.8453,49.814,24.4491,24.4491,0,0,1,63.09,58.32a25.3462,25.3462,0,0,1-8.7593,5.3931,31.59,31.59,0,0,1-11.0762,1.8823,31.58,31.58,0,0,1-11.0761-1.8823A25.3378,25.3378,0,0,1,23.419,58.32a24.4491,24.4491,0,0,1-5.7554-8.5063A28.9456,28.9456,0,0,1,15.6006,38.6655Zm11.7276,0A18.77,18.77,0,0,0,28.45,45.29a15.1573,15.1573,0,0,0,3.2212,5.2124A14.69,14.69,0,0,0,36.7027,53.94a16.7554,16.7554,0,0,0,6.5517,1.2305A16.7584,16.7584,0,0,0,49.8057,53.94,14.6951,14.6951,0,0,0,54.837,50.502,15.187,15.187,0,0,0,58.0586,45.29a18.8021,18.8021,0,0,0,1.1221-6.6241,18.8957,18.8957,0,0,0-1.1221-6.5874A15.1253,15.1253,0,0,0,54.837,26.83a14.7231,14.7231,0,0,0-5.0313-3.439,16.7855,16.7855,0,0,0-6.5513-1.23,16.7826,16.7826,0,0,0-6.5517,1.23,14.7183,14.7183,0,0,0-5.0313,3.439A15.0961,15.0961,0,0,0,28.45,32.0781,18.8634,18.8634,0,0,0,27.3282,38.6655Z"/><path class="cls-1" d="M78.5811,13.0386H97.62a37.6626,37.6626,0,0,1,7.5288.7241,17.1394,17.1394,0,0,1,6.1894,2.4976,12.6429,12.6429,0,0,1,4.1988,4.7778,16.3664,16.3664,0,0,1,1.5566,7.5649,17.4551,17.4551,0,0,1-1.4478,7.5288,12.3537,12.3537,0,0,1-3.9819,4.85,16.14,16.14,0,0,1-6.0083,2.57,35.252,35.252,0,0,1-7.5288.76H89.8741V64.2925H78.5811Zm11.293,21.7178h7.5288a14.5352,14.5352,0,0,0,2.9321-.29,7.7927,7.7927,0,0,0,2.5337-.977,5.2213,5.2213,0,0,0,1.81-1.8824,5.9555,5.9555,0,0,0,.688-3.0044,5.0826,5.0826,0,0,0-.9053-3.1489,6.0218,6.0218,0,0,0-2.3164-1.8462,9.9321,9.9321,0,0,0-3.1489-.8325,32.4815,32.4815,0,0,0-3.33-.1807H89.8741Z"/><path class="cls-1" d="M134.105,23.0288H119.482v-9.99h40.54v9.99h-14.623V64.2925H134.105Z"/><path class="cls-1" d="M165.5948,13.0386h11.2934V64.2925H165.5948Z"/><path class="cls-1" d="M184.4161,38.6655a28.9509,28.9509,0,0,1,2.0629-11.1484,24.4558,24.4558,0,0,1,5.7554-8.5059,25.3748,25.3748,0,0,1,8.7593-5.3935,33.536,33.536,0,0,1,22.1523,0,25.3832,25.3832,0,0,1,8.7593,5.3935,24.4558,24.4558,0,0,1,5.7554,8.5059,28.949,28.949,0,0,1,2.063,11.1484,28.9456,28.9456,0,0,1-2.063,11.1485,24.4491,24.4491,0,0,1-5.7554,8.5063,25.3462,25.3462,0,0,1-8.7593,5.3931,33.5292,33.5292,0,0,1-22.1523,0,25.3378,25.3378,0,0,1-8.7593-5.3931,24.4491,24.4491,0,0,1-5.7554-8.5063A28.9474,28.9474,0,0,1,184.4161,38.6655Zm11.7275,0a18.7682,18.7682,0,0,0,1.1221,6.6241,15.1558,15.1558,0,0,0,3.2212,5.2124,14.69,14.69,0,0,0,5.0312,3.4384,18.0562,18.0562,0,0,0,13.103,0,14.6951,14.6951,0,0,0,5.0313-3.4384,15.1887,15.1887,0,0,0,3.2217-5.2124,18.8043,18.8043,0,0,0,1.122-6.6241,18.898,18.898,0,0,0-1.122-6.5874,15.127,15.127,0,0,0-3.2217-5.2485,14.7231,14.7231,0,0,0-5.0313-3.439,18.0576,18.0576,0,0,0-13.103,0,14.7179,14.7179,0,0,0-5.0312,3.439,15.0946,15.0946,0,0,0-3.2212,5.2485A18.8612,18.8612,0,0,0,196.1436,38.6655Z"/><path class="cls-1" d="M247.3965,13.0386h15.3472l21.79,35.6172h.1446V13.0386h11.2934V64.2925h-14.768L258.8345,27.8066h-.145V64.2925h-11.293Z"/><path class="cls-1" d="M353.16,25.5625a8.0511,8.0511,0,0,0-3.7285-2.57A13.3844,13.3844,0,0,0,344.98,22.16a11.6991,11.6991,0,0,0-2.5337.29,9.7555,9.7555,0,0,0-2.4614.9048,5.3587,5.3587,0,0,0-1.8818,1.6289,4.1207,4.1207,0,0,0-.7241,2.4614,4.08,4.08,0,0,0,1.7373,3.5474,16.4292,16.4292,0,0,0,4.38,2.0991q2.6418.8687,5.6826,1.7373a23.4681,23.4681,0,0,1,5.6831,2.4614,13.4707,13.4707,0,0,1,4.3794,4.2715,13.0186,13.0186,0,0,1,1.7378,7.1665,16.4845,16.4845,0,0,1-1.5928,7.4566,15.1258,15.1258,0,0,1-4.3076,5.2846A18.3073,18.3073,0,0,1,348.78,64.582a28.8791,28.8791,0,0,1-16.8315-.5068,23.1947,23.1947,0,0,1-7.9629-4.9224l8.0356-8.832a11.71,11.71,0,0,0,4.3794,3.5835,12.5,12.5,0,0,0,5.4658,1.2666,12.3644,12.3644,0,0,0,2.7872-.3257,9.0967,9.0967,0,0,0,2.5336-.977,5.4755,5.4755,0,0,0,1.81-1.6651,4.1536,4.1536,0,0,0,.6875-2.3891,4.3376,4.3376,0,0,0-1.7734-3.6558,16.3951,16.3951,0,0,0-4.4522-2.28q-2.6791-.94-5.7915-1.8823a25.9372,25.9372,0,0,1-5.7915-2.5337,13.9421,13.9421,0,0,1-4.4521-4.1987,12.0067,12.0067,0,0,1-1.7735-6.8775,15.3974,15.3974,0,0,1,1.6289-7.2392,15.7256,15.7256,0,0,1,4.3433-5.2119,18.8947,18.8947,0,0,1,6.2622-3.1494,25.66,25.66,0,0,1,7.3115-1.0494,28.7758,28.7758,0,0,1,8.3975,1.2305,19.395,19.395,0,0,1,7.3115,4.1265Z"/><path class="cls-1" d="M381.9717,42.43,362.7154,13.0386h14.0439l10.8589,19.1841,11.51-19.1841H412.521L393.2652,42.43V64.2925H381.9717Z"/><path class="cls-1" d="M416.2857,13.0386H433.37l11.8,33.4453h.1455l11.8721-33.4453h17.0117V64.2925h-11.293V24.9834h-.1445L449.2964,64.2925h-8.6152l-12.958-39.3091h-.1445V64.2925h-11.293Z"/><path class="cls-1" d="M484.6226,13.0386h19.0391a37.664,37.664,0,0,1,7.5293.7241A17.1431,17.1431,0,0,1,517.38,16.26a12.646,12.646,0,0,1,4.1983,4.7778,16.3664,16.3664,0,0,1,1.5566,7.5649,17.4554,17.4554,0,0,1-1.4473,7.5288,12.3549,12.3549,0,0,1-3.9824,4.85,16.134,16.134,0,0,1-6.0078,2.57,35.26,35.26,0,0,1-7.5293.76h-8.2529V64.2925h-11.293Zm11.293,21.7178h7.5293a14.53,14.53,0,0,0,2.9316-.29,7.7911,7.7911,0,0,0,2.5342-.977,5.2254,5.2254,0,0,0,1.81-1.8824,5.9556,5.9556,0,0,0,.6875-3.0044,5.0794,5.0794,0,0,0-.9053-3.1489,6.0181,6.0181,0,0,0-2.3164-1.8462,9.9261,9.9261,0,0,0-3.1485-.8325,32.4856,32.4856,0,0,0-3.33-.1807h-5.792Z"/><path class="cls-1" d="M527.4781,38.6655a28.9416,28.9416,0,0,1,2.0634-11.1484,24.4546,24.4546,0,0,1,5.7549-8.5059,25.377,25.377,0,0,1,8.76-5.3935,33.536,33.536,0,0,1,22.1523,0,25.381,25.381,0,0,1,8.7588,5.3935,24.457,24.457,0,0,1,5.7559,8.5059,28.9583,28.9583,0,0,1,2.0625,11.1484,28.9549,28.9549,0,0,1-2.0625,11.1485,24.45,24.45,0,0,1-5.7559,8.5063,25.344,25.344,0,0,1-8.7588,5.3931,33.5292,33.5292,0,0,1-22.1523,0,25.34,25.34,0,0,1-8.76-5.3931,24.4479,24.4479,0,0,1-5.7549-8.5063A28.9381,28.9381,0,0,1,527.4781,38.6655Zm11.7275,0a18.77,18.77,0,0,0,1.1221,6.6241,15.1569,15.1569,0,0,0,3.2217,5.2124,14.6852,14.6852,0,0,0,5.0312,3.4384,18.0551,18.0551,0,0,0,13.1026,0,14.6861,14.6861,0,0,0,5.0312-3.4384,15.1872,15.1872,0,0,0,3.2217-5.2124,18.793,18.793,0,0,0,1.1221-6.6241,18.8865,18.8865,0,0,0-1.1221-6.5874,15.1255,15.1255,0,0,0-3.2217-5.2485,14.7141,14.7141,0,0,0-5.0312-3.439,18.0565,18.0565,0,0,0-13.1026,0,14.7131,14.7131,0,0,0-5.0312,3.439,15.0958,15.0958,0,0,0-3.2217,5.2485A18.8635,18.8635,0,0,0,539.2056,38.6655Z"/><path class="cls-1" d="M615.7955,25.5625a8.0462,8.0462,0,0,0-3.7286-2.57,13.3816,13.3816,0,0,0-4.4521-.8325,11.6911,11.6911,0,0,0-2.5332.29,9.75,9.75,0,0,0-2.4619.9048,5.359,5.359,0,0,0-1.8819,1.6289,4.12,4.12,0,0,0-.7236,2.4614,4.08,4.08,0,0,0,1.7373,3.5474,16.4232,16.4232,0,0,0,4.38,2.0991q2.6411.8687,5.6826,1.7373a23.4714,23.4714,0,0,1,5.6826,2.4614,13.4712,13.4712,0,0,1,4.38,4.2715,13.0187,13.0187,0,0,1,1.7373,7.1665,16.4766,16.4766,0,0,1-1.5928,7.4566,15.1137,15.1137,0,0,1-4.3076,5.2846,18.3068,18.3068,0,0,1-6.2978,3.1128,28.8778,28.8778,0,0,1-16.8311-.5068,23.1873,23.1873,0,0,1-7.9629-4.9224l8.0352-8.832a11.7078,11.7078,0,0,0,4.38,3.5835,12.4965,12.4965,0,0,0,5.4658,1.2666,12.3668,12.3668,0,0,0,2.7871-.3257,9.094,9.094,0,0,0,2.5332-.977,5.4769,5.4769,0,0,0,1.81-1.6651,4.1528,4.1528,0,0,0,.6875-2.3891,4.3376,4.3376,0,0,0-1.7734-3.6558,16.4106,16.4106,0,0,0-4.4521-2.28q-2.6793-.94-5.792-1.8823a25.9413,25.9413,0,0,1-5.791-2.5337,13.9363,13.9363,0,0,1-4.4522-4.1987,12.0028,12.0028,0,0,1-1.7734-6.8775,15.3962,15.3962,0,0,1,1.6289-7.2392,15.7239,15.7239,0,0,1,4.3427-5.2119,18.9021,18.9021,0,0,1,6.2627-3.1494,25.6576,25.6576,0,0,1,7.3116-1.0494,28.7776,28.7776,0,0,1,8.3974,1.2305,19.3935,19.3935,0,0,1,7.3115,4.1265Z"/><path class="cls-1" d="M631.8658,13.0386H643.16V64.2925H631.8658Z"/><path class="cls-1" d="M696.6568,44.5293a24.741,24.741,0,0,1-1.376,8.3975,18.4771,18.4771,0,0,1-4.09,6.66,18.7264,18.7264,0,0,1-6.7686,4.416,28.386,28.386,0,0,1-18.75,0,18.7175,18.7175,0,0,1-6.7685-4.416,18.4622,18.4622,0,0,1-4.09-6.66,24.6921,24.6921,0,0,1-1.376-8.3975V13.0386h11.293V44.0952a12.4743,12.4743,0,0,0,.7607,4.4155,10.524,10.524,0,0,0,2.1358,3.5113,9.6647,9.6647,0,0,0,3.293,2.3164,10.3294,10.3294,0,0,0,4.163.8325,10.0793,10.0793,0,0,0,4.126-.8325,9.7744,9.7744,0,0,0,3.2578-2.3164,10.5567,10.5567,0,0,0,2.1358-3.5113,12.4741,12.4741,0,0,0,.76-4.4155V13.0386h11.294Z"/><path class="cls-1" d="M707.0806,13.0386h17.085l11.8,33.4453h.1445L747.982,13.0386h17.0127V64.2925h-11.293V24.9834h-.1455L740.0914,64.2925h-8.6143l-12.958-39.3091h-.1455V64.2925h-11.293Z"/><path class="cls-1" d="M279.6749,96.8555h3.7182v2.8432h-3.7182v5.9053h-3.0621V99.6987H265.6773v-3.39l10.2432-16.5132h3.7544Zm-3.0621-13.4873H276.54l-8.2383,13.4873h8.311Z"/><path class="cls-1" d="M296.6338,80.0767h-4.9731V93.4653h-1.7852V80.0767h-4.9726V78.419h11.7309Z"/><path class="cls-1" d="M298.7374,78.419h1.7851v6.3754h8.0332V78.419h1.7852V93.4653h-1.7852V86.4522h-8.0332v7.0131h-1.7851Z"/><path class="cls-1" d="M340.461,101.8857a13.0652,13.0652,0,0,1-3.3535,3.0621,8.23,8.23,0,0,1-4.3741,1.0937,9.9581,9.9581,0,0,1-3.1352-.4922,7.6545,7.6545,0,0,1-2.6065-1.44,7.1666,7.1666,0,0,1-1.7861-2.3145,6.953,6.953,0,0,1-.6743-3.1167,6.7121,6.7121,0,0,1,.4556-2.497,7.4754,7.4754,0,0,1,1.24-2.0782,9.06,9.06,0,0,1,1.8223-1.64,15.6935,15.6935,0,0,1,2.2055-1.2578,16.0526,16.0526,0,0,1-2.187-2.6973,5.9431,5.9431,0,0,1-.9116-3.2807,5.6689,5.6689,0,0,1,.5469-2.5332,5.5237,5.5237,0,0,1,1.458-1.8594,6.3227,6.3227,0,0,1,2.1142-1.13,8.6526,8.6526,0,0,1,5.0308-.0181,6.2832,6.2832,0,0,1,2.06,1.0752,4.9759,4.9759,0,0,1,1.4033,1.7862,5.7708,5.7708,0,0,1,.51,2.497,4.9341,4.9341,0,0,1-.4922,2.2051,6.64,6.64,0,0,1-1.2759,1.7861,11.1352,11.1352,0,0,1-1.75,1.4219,21.5447,21.5447,0,0,1-1.95,1.1485l5.4678,5.7958,3.4628-5.7958h3.4629l-4.9575,7.9462,5.9058,6.0513h-4.1924ZM332.15,93.0645a18.6463,18.6463,0,0,0-1.64.9658,9.28,9.28,0,0,0-1.4585,1.1845,5.4042,5.4042,0,0,0-1.0571,1.4947,4.2532,4.2532,0,0,0-.4009,1.8594,4.5742,4.5742,0,0,0,.4009,1.9316,4.9031,4.9031,0,0,0,1.0937,1.5312,5.0045,5.0045,0,0,0,1.604,1.0206,5.15,5.15,0,0,0,1.9322.3647,5.5023,5.5023,0,0,0,1.8222-.292,6.3742,6.3742,0,0,0,1.5494-.7837,9.7317,9.7317,0,0,0,1.3486-1.13q.638-.6372,1.2578-1.3667Zm.7657-3.3174q.7287-.4006,1.4946-.8384a8.3356,8.3356,0,0,0,1.3853-.9844,4.7271,4.7271,0,0,0,1.02-1.2754,3.4245,3.4245,0,0,0,.4008-1.6772,2.7325,2.7325,0,0,0-.9658-2.2232,3.5092,3.5092,0,0,0-2.3149-.8022,3.9191,3.9191,0,0,0-2.6245.93,3.1508,3.1508,0,0,0-1.0938,2.5332,3.2239,3.2239,0,0,0,.5654,1.8774,12.506,12.506,0,0,0,1.2208,1.5127Z"/><path class="cls-1" d="M376.0748,82.6392H365.54l-.1094,6.9624a5.2809,5.2809,0,0,1,1.6221-.4922,12.0113,12.0113,0,0,1,1.6953-.1279,8.6054,8.6054,0,0,1,3.3716.6381,7.6679,7.6679,0,0,1,2.6064,1.7862,7.9107,7.9107,0,0,1,1.6768,2.6972,9.5044,9.5044,0,0,1,.5835,3.3721,8.9043,8.9043,0,0,1-.6743,3.5176,7.8861,7.8861,0,0,1-1.8594,2.6977,8.47,8.47,0,0,1-2.8067,1.7315,9.7889,9.7889,0,0,1-3.5175.62,8.0769,8.0769,0,0,1-4.7574-1.2759,8.9192,8.9192,0,0,1-2.8613-3.4267l3.062-1.1665a5.6815,5.6815,0,0,0,1.9136,2.3515,4.8767,4.8767,0,0,0,2.8979.8931,5.5628,5.5628,0,0,0,2.169-.4194,5.1189,5.1189,0,0,0,1.75-1.2027,5.8234,5.8234,0,0,0,1.1846-1.8774,6.526,6.526,0,0,0,.4375-2.4424,6.0711,6.0711,0,0,0-.4922-2.5151,5.2926,5.2926,0,0,0-1.3487-1.8409,5.7837,5.7837,0,0,0-2.0234-1.13,8.03,8.03,0,0,0-2.5151-.3823,8.6077,8.6077,0,0,0-2.6973.4555,12.8864,12.8864,0,0,0-2.5518,1.148l.2549-13.4146h13.524Z"/><path class="cls-1" d="M391.0289,80.0767h-4.9732V93.4653h-1.7851V80.0767h-4.9727V78.419h11.731Z"/><path class="cls-1" d="M393.1324,78.419h1.7851v6.3754h8.0332V78.419h1.7852V93.4653h-1.7852V86.4522h-8.0332v7.0131h-1.7851Z"/><path class="cls-1" d="M431.1021,98.9331a9.1539,9.1539,0,0,1-.3828,2.6065,6.7407,6.7407,0,0,1-1.2393,2.351,6.27,6.27,0,0,1-2.26,1.7134,8.2064,8.2064,0,0,1-3.4815.6563,7.3126,7.3126,0,0,1-4.5566-1.3853,6.4333,6.4333,0,0,1-2.333-4.1558l3.0615-.62a4.2839,4.2839,0,0,0,1.2578,2.4243,3.6864,3.6864,0,0,0,2.6064.8931,4.329,4.329,0,0,0,2.15-.4741,3.4367,3.4367,0,0,0,1.295-1.2393,5.2985,5.2985,0,0,0,.6377-1.768,11.5333,11.5333,0,0,0,.1816-2.06V79.7954h3.0625Z"/><path class="cls-1" d="M445.9009,79.7954h2.88l10.9717,25.8086H456.18l-2.624-6.3428H440.6519l-2.6611,6.3428h-3.4629Zm1.3858,3.937h-.0733L441.855,96.418h10.5342Z"/><path class="cls-1" d="M463.18,79.7954h3.8643L481.99,101.23h.0723V79.7954h3.0625V105.604H481.26L466.315,84.17h-.0733V105.604H463.18Z"/><path class="cls-1" d="M510.896,95.7617a14.8521,14.8521,0,0,1-.5293,4.01,9.2738,9.2738,0,0,1-1.6767,3.3354,8.0909,8.0909,0,0,1-3.0068,2.2964,12.3485,12.3485,0,0,1-9.04,0,8.0946,8.0946,0,0,1-3.0078-2.2964,9.2756,9.2756,0,0,1-1.6768-3.3354,14.8561,14.8561,0,0,1-.5283-4.01V79.7954h3.0615V95.3242A13.7357,13.7357,0,0,0,494.82,98.35a7.507,7.507,0,0,0,1.0937,2.5879,5.55,5.55,0,0,0,2.041,1.8047,7.9685,7.9685,0,0,0,6.4161,0,5.5433,5.5433,0,0,0,2.041-1.8047,7.4879,7.4879,0,0,0,1.0937-2.5879,13.7357,13.7357,0,0,0,.3281-3.0259V79.7954h3.0625Z"/><path class="cls-1" d="M525.5855,79.7954h2.88l10.9717,25.8086h-3.5723l-2.624-6.3428H520.3365l-2.6612,6.3428h-3.4629Zm1.3857,3.937h-.0732L521.54,96.418h10.5342Z"/><path class="cls-1" d="M542.8648,79.7954h6.5976a31.408,31.408,0,0,1,3.7.2188,9.9631,9.9631,0,0,1,3.2989.9477,5.9761,5.9761,0,0,1,2.3691,2.1328,6.93,6.93,0,0,1,.9111,3.8091,6.2865,6.2865,0,0,1-1.7128,4.5933,8.1864,8.1864,0,0,1-4.7393,2.2236l7.3271,11.8833h-3.7548l-6.9981-11.5918h-3.9375V105.604h-3.0615Zm3.0615,11.3736h2.7344q1.2759,0,2.6426-.0733a9.0468,9.0468,0,0,0,2.5156-.4736,4.3769,4.3769,0,0,0,1.8955-1.2578,3.6354,3.6354,0,0,0,.7471-2.46,4.02,4.02,0,0,0-.5469-2.2236,3.7023,3.7023,0,0,0-1.4395-1.294,6.1586,6.1586,0,0,0-2.0048-.6015,17.3335,17.3335,0,0,0-2.2422-.1455h-4.3018Z"/><path class="cls-1" d="M569.8755,94.4858l-9.623-14.69h3.9l7.2539,11.6651,7.4726-11.6651h3.6817l-9.6231,14.69V105.604h-3.0625Z"/><path class="cls-1" d="M594.189,102.1045l9.7334-9.4775q.91-.8753,1.6035-1.6221a10.5206,10.5206,0,0,0,1.1485-1.458,5.5881,5.5881,0,0,0,.6748-1.4766,6.2425,6.2425,0,0,0,.2177-1.7134,4.358,4.358,0,0,0-.3642-1.8222,4.0393,4.0393,0,0,0-1.002-1.3672,4.5913,4.5913,0,0,0-1.4951-.875,5.383,5.383,0,0,0-1.8408-.31,4.7129,4.7129,0,0,0-3.2441,1.13,5.1962,5.1962,0,0,0-1.6407,2.9893l-3.3164-.2915a8.0582,8.0582,0,0,1,.9658-2.7891,6.6868,6.6868,0,0,1,1.7862-2.023,7.996,7.996,0,0,1,2.4238-1.2212,10.3148,10.3148,0,0,1,5.9414.0367,7.5745,7.5745,0,0,1,2.4971,1.3305,6.3638,6.3638,0,0,1,1.7138,2.187,6.8471,6.8471,0,0,1,.6377,3.0254,8.6134,8.6134,0,0,1-.4189,2.77,9.3019,9.3019,0,0,1-1.13,2.2784,15.4007,15.4007,0,0,1-1.6045,1.9682q-.8935.93-1.8769,1.8408l-7.9473,7.4732v.0727h13.16v2.8433H594.189Z"/><path class="cls-1" d="M614.0191,92.7a29.9762,29.9762,0,0,1,.3652-4.5566,14.35,14.35,0,0,1,1.3487-4.3194,8.9533,8.9533,0,0,1,2.6787-3.208,8.176,8.176,0,0,1,8.7129,0,8.9554,8.9554,0,0,1,2.6787,3.208,14.3807,14.3807,0,0,1,1.3486,4.3194,28.61,28.61,0,0,1,0,9.1133,14.3707,14.3707,0,0,1-1.3486,4.32,8.95,8.95,0,0,1-2.6787,3.2075,8.1733,8.1733,0,0,1-8.7129,0,8.9474,8.9474,0,0,1-2.6787-3.2075,14.34,14.34,0,0,1-1.3487-4.32A29.9734,29.9734,0,0,1,614.0191,92.7Zm3.0625,0q0,.9484.0732,2.1143a21.9626,21.9626,0,0,0,.2735,2.351,14.8126,14.8126,0,0,0,.583,2.315,7.3861,7.3861,0,0,0,1.02,2.0049,5.012,5.012,0,0,0,1.5488,1.4033,4.7889,4.7889,0,0,0,4.375,0,5.0323,5.0323,0,0,0,1.5488-1.4033,7.4117,7.4117,0,0,0,1.02-2.0049,14.9252,14.9252,0,0,0,.5831-2.315,22.4865,22.4865,0,0,0,.2734-2.351q.0732-1.1661.0732-2.1143t-.0732-2.1142a22.5477,22.5477,0,0,0-.2734-2.3511,14.9681,14.9681,0,0,0-.5831-2.315,7.4257,7.4257,0,0,0-1.02-2.0048,5.0376,5.0376,0,0,0-1.5488-1.4034,4.793,4.793,0,0,0-4.375,0,5.0173,5.0173,0,0,0-1.5488,1.4034,7.4,7.4,0,0,0-1.02,2.0048,14.8549,14.8549,0,0,0-.583,2.315,22.021,22.021,0,0,0-.2735,2.3511Q617.08,91.753,617.0816,92.7Z"/><path class="cls-1" d="M634.7242,102.1045l9.7334-9.4775q.91-.8753,1.6035-1.6221a10.5194,10.5194,0,0,0,1.1484-1.458,5.5881,5.5881,0,0,0,.6748-1.4766,6.2424,6.2424,0,0,0,.2178-1.7134,4.3564,4.3564,0,0,0-.3643-1.8222,4.0378,4.0378,0,0,0-1.0019-1.3672,4.5913,4.5913,0,0,0-1.4951-.875,5.3832,5.3832,0,0,0-1.8409-.31,4.713,4.713,0,0,0-3.2441,1.13,5.1955,5.1955,0,0,0-1.6406,2.9893l-3.3164-.2915a8.0561,8.0561,0,0,1,.9658-2.7891,6.6852,6.6852,0,0,1,1.7861-2.023,7.9954,7.9954,0,0,1,2.4239-1.2212,10.3148,10.3148,0,0,1,5.9414.0367,7.574,7.574,0,0,1,2.497,1.3305,6.3652,6.3652,0,0,1,1.7139,2.187,6.8471,6.8471,0,0,1,.6377,3.0254,8.6161,8.6161,0,0,1-.4189,2.77,9.3019,9.3019,0,0,1-1.13,2.2784,15.4007,15.4007,0,0,1-1.6045,1.9682q-.8935.93-1.877,1.8408l-7.9472,7.4732v.0727h13.16v2.8433h-16.623Z"/><path class="cls-1" d="M654.5542,92.7a29.9639,29.9639,0,0,1,.3653-4.5566,14.3524,14.3524,0,0,1,1.3486-4.3194,8.9544,8.9544,0,0,1,2.6787-3.208,8.176,8.176,0,0,1,8.7129,0,8.9533,8.9533,0,0,1,2.6787,3.208,14.378,14.378,0,0,1,1.3487,4.3194,28.61,28.61,0,0,1,0,9.1133,14.368,14.368,0,0,1-1.3487,4.32,8.9474,8.9474,0,0,1-2.6787,3.2075,8.1733,8.1733,0,0,1-8.7129,0,8.9484,8.9484,0,0,1-2.6787-3.2075,14.3424,14.3424,0,0,1-1.3486-4.32A29.9611,29.9611,0,0,1,654.5542,92.7Zm3.0625,0q0,.9484.0733,2.1143a21.9622,21.9622,0,0,0,.2734,2.351,14.8238,14.8238,0,0,0,.583,2.315,7.389,7.389,0,0,0,1.0205,2.0049,5.0113,5.0113,0,0,0,1.5489,1.4033,4.7889,4.7889,0,0,0,4.375,0,5.0345,5.0345,0,0,0,1.5488-1.4033A7.4145,7.4145,0,0,0,668.06,99.48a14.9249,14.9249,0,0,0,.583-2.315,22.46,22.46,0,0,0,.2734-2.351q.0734-1.1661.0733-2.1143t-.0733-2.1142a22.5207,22.5207,0,0,0-.2734-2.3511,14.9678,14.9678,0,0,0-.583-2.315,7.4286,7.4286,0,0,0-1.0205-2.0048,5.04,5.04,0,0,0-1.5488-1.4034,4.793,4.793,0,0,0-4.375,0,5.0166,5.0166,0,0,0-1.5489,1.4034,7.4029,7.4029,0,0,0-1.0205,2.0048,14.8661,14.8661,0,0,0-.583,2.315,22.0205,22.0205,0,0,0-.2734,2.3511Q657.6153,91.753,657.6167,92.7Z"/><path class="cls-1" d="M688.82,78.2647v36.4526h-2.4053V78.2647Z"/><path class="cls-1" d="M705.0044,79.7954h7.8741a14.9314,14.9314,0,0,1,3.1347.3281,8.5193,8.5193,0,0,1,2.7334,1.0757,5.9792,5.9792,0,0,1,1.95,1.95,5.5663,5.5663,0,0,1,.7471,2.9888,5.67,5.67,0,0,1-1.2207,3.7368,6.6054,6.6054,0,0,1-3.2988,2.0957v.0728a6.5061,6.5061,0,0,1,2.3144.6381,6.3813,6.3813,0,0,1,1.8594,1.3667,6.09,6.09,0,0,1,1.2207,1.95,7.15,7.15,0,0,1-.4551,5.9239,6.6463,6.6463,0,0,1-2.333,2.205,10.1945,10.1945,0,0,1-3.2441,1.1485,20.0458,20.0458,0,0,1-3.5909.3281h-7.6914Zm3.0616,10.9361h4.2285a15.2652,15.2652,0,0,0,2.1328-.146,5.4716,5.4716,0,0,0,1.8769-.6016,3.574,3.574,0,0,0,1.3487-1.2754,4.06,4.06,0,0,0,.5107-2.1689,3.5964,3.5964,0,0,0-.4736-1.95,3.4724,3.4724,0,0,0-1.2578-1.1851,5.43,5.43,0,0,0-1.7862-.6011,12.52,12.52,0,0,0-2.0234-.164H708.066Zm0,12.0292h5.1767a10.7069,10.7069,0,0,0,2.2412-.2368,6.6044,6.6044,0,0,0,2.0049-.7656,4.24,4.24,0,0,0,1.44-1.3852,3.8186,3.8186,0,0,0,.5469-2.0962,4.4516,4.4516,0,0,0-.5283-2.26,4.2141,4.2141,0,0,0-1.3857-1.458,5.6478,5.6478,0,0,0-1.9688-.7656,11.7562,11.7562,0,0,0-2.2783-.2188h-5.249Z"/><path class="cls-1" d="M740.2173,84.3521a4.5134,4.5134,0,0,0-2.042-1.8042,6.5031,6.5031,0,0,0-2.66-.565,7.9826,7.9826,0,0,0-2.0049.2549,5.971,5.971,0,0,0-1.7686.7656,3.8449,3.8449,0,0,0-1.2578,1.3487,3.9432,3.9432,0,0,0-.4736,1.9687,4.0935,4.0935,0,0,0,.2734,1.5493,3.2568,3.2568,0,0,0,.8936,1.2207,6.592,6.592,0,0,0,1.6767,1.021,23.0649,23.0649,0,0,0,2.5879.9478q1.4941.4738,2.8975,1.02a9.8073,9.8073,0,0,1,2.48,1.3852,6.1618,6.1618,0,0,1,1.7129,2.0962,7.1542,7.1542,0,0,1-2.15,8.8579,8.779,8.779,0,0,1-2.8984,1.3853,12.631,12.631,0,0,1-3.39.4556,12.9383,12.9383,0,0,1-2.26-.2007,10.8458,10.8458,0,0,1-2.1689-.62,8.7329,8.7329,0,0,1-1.95-1.0937,6.5742,6.5742,0,0,1-1.5684-1.6582l2.625-2.1509a5.39,5.39,0,0,0,2.333,2.1509,7.1237,7.1237,0,0,0,5.1583.437,6.0063,6.0063,0,0,0,1.8037-.8564,4.667,4.667,0,0,0,1.3125-1.4034,3.6449,3.6449,0,0,0,.5107-1.9321,4.1159,4.1159,0,0,0-.4014-1.95,3.5878,3.5878,0,0,0-1.2392-1.2939,9.5613,9.5613,0,0,0-2.1143-.9844q-1.2759-.4373-2.9892-1.02a18.8274,18.8274,0,0,1-2.5518-1.0025,7.8208,7.8208,0,0,1-2.0225-1.3852,5.9179,5.9179,0,0,1-1.3486-1.9683,6.9632,6.9632,0,0,1-.4922-2.7524,6.6408,6.6408,0,0,1,2.6973-5.5591,8.962,8.962,0,0,1,2.8066-1.4033,11.898,11.898,0,0,1,7.2725.2007,7.8121,7.8121,0,0,1,3.2256,2.351Z"/><path class="cls-1" d="M748.2369,79.7954h16.2207v2.8438H751.2984v8.0923h12.2851v2.8432H751.2984v9.186h13.8154v2.8433H748.2369Z"/></svg>